<mxfile host="app.diagrams.net" modified="2024-06-25T17:51:22.141Z" agent="Mozilla/5.0 (X11; Ubuntu; Linux x86_64; rv:127.0) Gecko/20100101 Firefox/127.0" etag="phY5ZEU1UgtmZ8fCyXXI" version="24.6.3" type="device">
  <diagram name="Page-1" id="13e1069c-82ec-6db2-03f1-153e76fe0fe0">
    <mxGraphModel dx="1705" dy="994" grid="0" gridSize="10" guides="1" tooltips="1" connect="1" arrows="1" fold="1" page="1" pageScale="1" pageWidth="1100" pageHeight="850" background="none" math="0" shadow="0">
      <root>
        <mxCell id="0" />
        <mxCell id="1" parent="0" />
        <mxCell id="9xlSUgU_vKYXvh8DQ8D8-1" value="" style="rounded=0;whiteSpace=wrap;html=1;" parent="1" vertex="1">
          <mxGeometry x="234" y="29" width="847" height="930" as="geometry" />
        </mxCell>
        <mxCell id="9xlSUgU_vKYXvh8DQ8D8-2" value="Utilisateur" style="shape=umlActor;verticalLabelPosition=bottom;verticalAlign=top;html=1;outlineConnect=0;" parent="1" vertex="1">
          <mxGeometry x="131" y="417" width="30" height="60" as="geometry" />
        </mxCell>
        <mxCell id="9xlSUgU_vKYXvh8DQ8D8-4" value="Ajouter une couche" style="ellipse;whiteSpace=wrap;html=1;" parent="1" vertex="1">
          <mxGeometry x="285" y="125" width="195" height="66" as="geometry" />
        </mxCell>
        <mxCell id="9xlSUgU_vKYXvh8DQ8D8-5" value="Activer une couche" style="ellipse;whiteSpace=wrap;html=1;" parent="1" vertex="1">
          <mxGeometry x="285" y="407" width="195" height="66" as="geometry" />
        </mxCell>
        <mxCell id="9xlSUgU_vKYXvh8DQ8D8-6" value="Translater une couche" style="ellipse;whiteSpace=wrap;html=1;" parent="1" vertex="1">
          <mxGeometry x="677" y="474" width="195" height="66" as="geometry" />
        </mxCell>
        <mxCell id="9xlSUgU_vKYXvh8DQ8D8-8" value="Reinitialiser un canevas" style="ellipse;whiteSpace=wrap;html=1;" parent="1" vertex="1">
          <mxGeometry x="285" y="693" width="195" height="66" as="geometry" />
        </mxCell>
        <mxCell id="9xlSUgU_vKYXvh8DQ8D8-9" value="Reinitialiser une couche" style="ellipse;whiteSpace=wrap;html=1;" parent="1" vertex="1">
          <mxGeometry x="677" y="577" width="195" height="66" as="geometry" />
        </mxCell>
        <mxCell id="9xlSUgU_vKYXvh8DQ8D8-16" value="" style="endArrow=none;html=1;rounded=0;entryX=0;entryY=0.5;entryDx=0;entryDy=0;exitX=1;exitY=1;exitDx=0;exitDy=0;exitPerimeter=0;" parent="1" source="9xlSUgU_vKYXvh8DQ8D8-2" target="9xlSUgU_vKYXvh8DQ8D8-8" edge="1">
          <mxGeometry width="50" height="50" relative="1" as="geometry">
            <mxPoint x="169" y="607" as="sourcePoint" />
            <mxPoint x="219" y="557" as="targetPoint" />
          </mxGeometry>
        </mxCell>
        <mxCell id="5b8H0xf9A_ayQeuO7AFz-1" value="Ajouter une forme" style="ellipse;whiteSpace=wrap;html=1;" vertex="1" parent="1">
          <mxGeometry x="677" y="266" width="195" height="66" as="geometry" />
        </mxCell>
        <mxCell id="5b8H0xf9A_ayQeuO7AFz-3" value="Afficher un canevas" style="ellipse;whiteSpace=wrap;html=1;" vertex="1" parent="1">
          <mxGeometry x="285" y="842" width="195" height="66" as="geometry" />
        </mxCell>
        <mxCell id="5b8H0xf9A_ayQeuO7AFz-4" value="" style="endArrow=none;html=1;rounded=0;entryX=0;entryY=0.5;entryDx=0;entryDy=0;exitX=0;exitY=1;exitDx=0;exitDy=0;exitPerimeter=0;" edge="1" parent="1" source="9xlSUgU_vKYXvh8DQ8D8-2" target="5b8H0xf9A_ayQeuO7AFz-3">
          <mxGeometry width="50" height="50" relative="1" as="geometry">
            <mxPoint x="125" y="542" as="sourcePoint" />
            <mxPoint x="279" y="748" as="targetPoint" />
          </mxGeometry>
        </mxCell>
        <mxCell id="5b8H0xf9A_ayQeuO7AFz-6" value="&lt;span lang=&quot;fr&quot; class=&quot;BxUVEf ILfuVd&quot;&gt;&lt;span class=&quot;hgKElc&quot;&gt;&lt;b&gt;«&lt;/b&gt;Inclut&lt;b&gt;»&lt;/b&gt;&lt;/span&gt;&lt;/span&gt;" style="endArrow=open;endSize=12;dashed=1;html=1;rounded=0;exitX=1;exitY=0.5;exitDx=0;exitDy=0;entryX=0;entryY=0.5;entryDx=0;entryDy=0;" edge="1" parent="1" source="5b8H0xf9A_ayQeuO7AFz-3" target="5b8H0xf9A_ayQeuO7AFz-7">
          <mxGeometry x="-0.0355" y="18" width="160" relative="1" as="geometry">
            <mxPoint x="590" y="770" as="sourcePoint" />
            <mxPoint x="621" y="765" as="targetPoint" />
            <mxPoint as="offset" />
          </mxGeometry>
        </mxCell>
        <mxCell id="5b8H0xf9A_ayQeuO7AFz-7" value="Afficher une couche" style="ellipse;whiteSpace=wrap;html=1;" vertex="1" parent="1">
          <mxGeometry x="570" y="840" width="195" height="66" as="geometry" />
        </mxCell>
        <mxCell id="5b8H0xf9A_ayQeuO7AFz-9" value="Afficher une forme" style="ellipse;whiteSpace=wrap;html=1;" vertex="1" parent="1">
          <mxGeometry x="859" y="840" width="195" height="66" as="geometry" />
        </mxCell>
        <mxCell id="5b8H0xf9A_ayQeuO7AFz-11" value="&lt;span lang=&quot;fr&quot; class=&quot;BxUVEf ILfuVd&quot;&gt;&lt;span class=&quot;hgKElc&quot;&gt;&lt;b&gt;«&lt;/b&gt;Inclut&lt;b&gt;»&lt;/b&gt;&lt;/span&gt;&lt;/span&gt;" style="endArrow=open;endSize=12;dashed=1;html=1;rounded=0;exitX=1;exitY=0.5;exitDx=0;exitDy=0;entryX=0;entryY=0.5;entryDx=0;entryDy=0;" edge="1" parent="1" source="5b8H0xf9A_ayQeuO7AFz-7" target="5b8H0xf9A_ayQeuO7AFz-9">
          <mxGeometry x="-0.0426" y="17" width="160" relative="1" as="geometry">
            <mxPoint x="806" y="762" as="sourcePoint" />
            <mxPoint x="896" y="760" as="targetPoint" />
            <mxPoint as="offset" />
          </mxGeometry>
        </mxCell>
        <mxCell id="5b8H0xf9A_ayQeuO7AFz-12" value="Retirer une couche" style="ellipse;whiteSpace=wrap;html=1;" vertex="1" parent="1">
          <mxGeometry x="285" y="260" width="195" height="66" as="geometry" />
        </mxCell>
        <mxCell id="5b8H0xf9A_ayQeuO7AFz-14" value="Désactiver une couche" style="ellipse;whiteSpace=wrap;html=1;" vertex="1" parent="1">
          <mxGeometry x="285" y="548" width="195" height="66" as="geometry" />
        </mxCell>
        <mxCell id="5b8H0xf9A_ayQeuO7AFz-16" value="Retirer une forme" style="ellipse;whiteSpace=wrap;html=1;" vertex="1" parent="1">
          <mxGeometry x="677" y="371" width="195" height="66" as="geometry" />
        </mxCell>
        <mxCell id="5b8H0xf9A_ayQeuO7AFz-23" value="&lt;font style=&quot;font-size: 16px;&quot;&gt;Canevas&lt;/font&gt;" style="text;align=center;fontStyle=1;verticalAlign=middle;spacingLeft=3;spacingRight=3;strokeColor=none;rotatable=0;points=[[0,0.5],[1,0.5]];portConstraint=eastwest;html=1;" vertex="1" parent="1">
          <mxGeometry x="617.5" y="40" width="80" height="26" as="geometry" />
        </mxCell>
        <mxCell id="5b8H0xf9A_ayQeuO7AFz-24" value="&lt;span style=&quot;font-size: 13px;&quot; lang=&quot;fr&quot; class=&quot;BxUVEf ILfuVd&quot;&gt;&lt;span class=&quot;hgKElc&quot;&gt;«Étend»&lt;/span&gt;&lt;/span&gt;" style="endArrow=open;endSize=12;dashed=1;html=1;rounded=0;exitX=1;exitY=0.5;exitDx=0;exitDy=0;entryX=0;entryY=0.5;entryDx=0;entryDy=0;" edge="1" parent="1" source="9xlSUgU_vKYXvh8DQ8D8-5" target="5b8H0xf9A_ayQeuO7AFz-1">
          <mxGeometry x="-0.0355" y="18" width="160" relative="1" as="geometry">
            <mxPoint x="492" y="625" as="sourcePoint" />
            <mxPoint x="582" y="623" as="targetPoint" />
            <mxPoint as="offset" />
          </mxGeometry>
        </mxCell>
        <mxCell id="5b8H0xf9A_ayQeuO7AFz-26" value="&lt;span style=&quot;font-size: 13px;&quot; lang=&quot;fr&quot; class=&quot;BxUVEf ILfuVd&quot;&gt;&lt;span class=&quot;hgKElc&quot;&gt;«Étend»&lt;/span&gt;&lt;/span&gt;" style="endArrow=open;endSize=12;dashed=1;html=1;rounded=0;exitX=1;exitY=0.5;exitDx=0;exitDy=0;entryX=0;entryY=0.5;entryDx=0;entryDy=0;" edge="1" parent="1" source="9xlSUgU_vKYXvh8DQ8D8-5" target="5b8H0xf9A_ayQeuO7AFz-16">
          <mxGeometry x="0.1551" y="15" width="160" relative="1" as="geometry">
            <mxPoint x="490" y="450" as="sourcePoint" />
            <mxPoint x="687" y="309" as="targetPoint" />
            <mxPoint x="-1" as="offset" />
          </mxGeometry>
        </mxCell>
        <mxCell id="5b8H0xf9A_ayQeuO7AFz-27" value="&lt;span style=&quot;font-size: 13px;&quot; lang=&quot;fr&quot; class=&quot;BxUVEf ILfuVd&quot;&gt;&lt;span class=&quot;hgKElc&quot;&gt;«Étend»&lt;/span&gt;&lt;/span&gt;" style="endArrow=open;endSize=12;dashed=1;html=1;rounded=0;exitX=1;exitY=0.5;exitDx=0;exitDy=0;entryX=0;entryY=0.5;entryDx=0;entryDy=0;" edge="1" parent="1" source="9xlSUgU_vKYXvh8DQ8D8-5" target="9xlSUgU_vKYXvh8DQ8D8-6">
          <mxGeometry x="0.1726" y="11" width="160" relative="1" as="geometry">
            <mxPoint x="490" y="450" as="sourcePoint" />
            <mxPoint x="687" y="414" as="targetPoint" />
            <mxPoint x="-1" as="offset" />
          </mxGeometry>
        </mxCell>
        <mxCell id="5b8H0xf9A_ayQeuO7AFz-29" value="&lt;span style=&quot;font-size: 13px;&quot; lang=&quot;fr&quot; class=&quot;BxUVEf ILfuVd&quot;&gt;&lt;span class=&quot;hgKElc&quot;&gt;«Étend»&lt;/span&gt;&lt;/span&gt;" style="endArrow=open;endSize=12;dashed=1;html=1;rounded=0;exitX=1;exitY=0.5;exitDx=0;exitDy=0;entryX=0;entryY=0.5;entryDx=0;entryDy=0;" edge="1" parent="1" source="9xlSUgU_vKYXvh8DQ8D8-5" target="9xlSUgU_vKYXvh8DQ8D8-9">
          <mxGeometry x="0.2494" y="12" width="160" relative="1" as="geometry">
            <mxPoint x="490" y="450" as="sourcePoint" />
            <mxPoint x="687" y="517" as="targetPoint" />
            <mxPoint as="offset" />
          </mxGeometry>
        </mxCell>
        <mxCell id="5b8H0xf9A_ayQeuO7AFz-30" value="" style="endArrow=none;html=1;rounded=0;entryX=0;entryY=0.5;entryDx=0;entryDy=0;exitX=1;exitY=1;exitDx=0;exitDy=0;exitPerimeter=0;" edge="1" parent="1" target="5b8H0xf9A_ayQeuO7AFz-14">
          <mxGeometry width="50" height="50" relative="1" as="geometry">
            <mxPoint x="171" y="487" as="sourcePoint" />
            <mxPoint x="295" y="736" as="targetPoint" />
          </mxGeometry>
        </mxCell>
        <mxCell id="5b8H0xf9A_ayQeuO7AFz-31" value="" style="endArrow=none;html=1;rounded=0;entryX=0;entryY=0.5;entryDx=0;entryDy=0;exitX=1;exitY=0.3333333333333333;exitDx=0;exitDy=0;exitPerimeter=0;" edge="1" parent="1" source="9xlSUgU_vKYXvh8DQ8D8-2" target="9xlSUgU_vKYXvh8DQ8D8-5">
          <mxGeometry width="50" height="50" relative="1" as="geometry">
            <mxPoint x="171" y="487" as="sourcePoint" />
            <mxPoint x="295" y="736" as="targetPoint" />
          </mxGeometry>
        </mxCell>
        <mxCell id="5b8H0xf9A_ayQeuO7AFz-32" value="" style="endArrow=none;html=1;rounded=0;entryX=0;entryY=0.5;entryDx=0;entryDy=0;exitX=0.5;exitY=0;exitDx=0;exitDy=0;exitPerimeter=0;" edge="1" parent="1" source="9xlSUgU_vKYXvh8DQ8D8-2" target="5b8H0xf9A_ayQeuO7AFz-12">
          <mxGeometry width="50" height="50" relative="1" as="geometry">
            <mxPoint x="181" y="497" as="sourcePoint" />
            <mxPoint x="305" y="746" as="targetPoint" />
          </mxGeometry>
        </mxCell>
        <mxCell id="5b8H0xf9A_ayQeuO7AFz-33" value="" style="endArrow=none;html=1;rounded=0;entryX=0;entryY=0.5;entryDx=0;entryDy=0;exitX=0.5;exitY=0;exitDx=0;exitDy=0;exitPerimeter=0;" edge="1" parent="1" source="9xlSUgU_vKYXvh8DQ8D8-2" target="9xlSUgU_vKYXvh8DQ8D8-4">
          <mxGeometry width="50" height="50" relative="1" as="geometry">
            <mxPoint x="191" y="507" as="sourcePoint" />
            <mxPoint x="315" y="756" as="targetPoint" />
          </mxGeometry>
        </mxCell>
      </root>
    </mxGraphModel>
  </diagram>
</mxfile>
